<svg width="921" height="1063" xmlns="http://www.w3.org/2000/svg" xmlns:xlink="http://www.w3.org/1999/xlink" xml:space="preserve" overflow="hidden"><defs><clipPath id="clip0"><rect x="1049" y="756" width="921" height="1063"/></clipPath><linearGradient x1="1206.42" y1="884.991" x2="1100.58" y2="906.009" gradientUnits="userSpaceOnUse" spreadMethod="reflect" id="fill1"><stop offset="0" stop-color="#0063FF" stop-opacity="1"/><stop offset="0.5" stop-color="#1A71E3" stop-opacity="1"/><stop offset="1" stop-color="#2188FF" stop-opacity="1"/></linearGradient><linearGradient x1="1918.42" y1="884.991" x2="1812.58" y2="906.009" gradientUnits="userSpaceOnUse" spreadMethod="reflect" id="fill2"><stop offset="0" stop-color="#4900F3" stop-opacity="1"/><stop offset="0.5" stop-color="#3C00FC" stop-opacity="1"/><stop offset="1" stop-color="#3E00FF" stop-opacity="1"/></linearGradient><linearGradient x1="1126" y1="1149" x2="1893" y2="1149" gradientUnits="userSpaceOnUse" spreadMethod="reflect" id="fill3"><stop offset="0" stop-color="#4D01FB" stop-opacity="1"/><stop offset="0.32" stop-color="#3100FF" stop-opacity="1"/><stop offset="1" stop-color="#308AFE" stop-opacity="1"/></linearGradient><linearGradient x1="1421" y1="1180.54" x2="1598" y2="690.46" gradientUnits="userSpaceOnUse" spreadMethod="reflect" id="fill4"><stop offset="0" stop-color="#6300DE" stop-opacity="1"/><stop offset="0.63" stop-color="#8500C2" stop-opacity="1"/><stop offset="1" stop-color="#AB00A3" stop-opacity="1"/></linearGradient></defs><g clip-path="url(#clip0)" transform="translate(-1049 -756)"><path d="M1126 784.503C1126 769.314 1138.31 757 1153.5 757L1153.5 757C1168.69 757 1181.01 769.314 1181.01 784.503L1181.01 1006.5C1181.01 1021.69 1168.69 1034 1153.5 1034 1138.31 1034 1126 1021.69 1126 1006.5Z" fill="url(#fill1)" fill-rule="evenodd"/><path d="M1838 784.503C1838 769.314 1850.31 757 1865.5 757L1865.5 757C1880.69 757 1893.01 769.314 1893.01 784.503L1893.01 1006.5C1893.01 1021.69 1880.69 1034 1865.5 1034 1850.31 1034 1838 1021.69 1838 1006.5Z" fill="url(#fill2)" fill-rule="evenodd"/><path d="M1126 1019.57C1126 896.648 1225.65 797 1348.57 797L1670.43 797C1793.35 797 1893 896.648 1893 1019.57L1893 1278.43C1893 1401.35 1793.35 1501 1670.43 1501L1348.57 1501C1225.65 1501 1126 1401.35 1126 1278.43Z" fill="url(#fill3)" fill-rule="evenodd"/><path d="M1336.01 797 1682.99 797C1798.97 797 1893 896.518 1893 1019.28L1893 1074 1126 1074 1126 1019.28C1126 896.518 1220.03 797 1336.01 797Z" fill="url(#fill4)" fill-rule="evenodd"/><path d="M1190 1087C1190 1012.44 1250.44 952 1325 952 1399.56 952 1460 1012.44 1460 1087 1460 1161.56 1399.56 1222 1325 1222 1250.44 1222 1190 1161.56 1190 1087Z" fill="#FFFFFF" fill-rule="evenodd" fill-opacity="1"/><path d="M1241 1087C1241 1040.61 1278.61 1003 1325 1003 1371.39 1003 1409 1040.61 1409 1087 1409 1133.39 1371.39 1171 1325 1171 1278.61 1171 1241 1133.39 1241 1087Z" fill="#4C0A83" fill-rule="evenodd" fill-opacity="1"/><path d="M1357 1055.5C1357 1039.76 1369.76 1027 1385.5 1027 1401.24 1027 1414 1039.76 1414 1055.5 1414 1071.24 1401.24 1084 1385.5 1084 1369.76 1084 1357 1071.24 1357 1055.5Z" fill="#FFFFFF" fill-rule="evenodd" fill-opacity="1"/><path d="M1560 1087C1560 1012.44 1620.44 952 1695 952 1769.56 952 1830 1012.44 1830 1087 1830 1161.56 1769.56 1222 1695 1222 1620.44 1222 1560 1161.56 1560 1087Z" fill="#FFFFFF" fill-rule="evenodd" fill-opacity="1"/><path d="M1611 1087C1611 1040.61 1648.61 1003 1695 1003 1741.39 1003 1779 1040.61 1779 1087 1779 1133.39 1741.39 1171 1695 1171 1648.61 1171 1611 1133.39 1611 1087Z" fill="#4C0A83" fill-rule="evenodd" fill-opacity="1"/><path d="M1728 1055.5C1728 1039.76 1740.54 1027 1756 1027 1771.46 1027 1784 1039.76 1784 1055.5 1784 1071.24 1771.46 1084 1756 1084 1740.54 1084 1728 1071.24 1728 1055.5Z" fill="#FFFFFF" fill-rule="evenodd" fill-opacity="1"/><path d="M1643.99 1308.29C1615.66 1340.09 1551.69 1376.79 1496.6 1366.01" stroke="#FFFFFF" stroke-width="38.9583" stroke-linecap="round" stroke-linejoin="miter" stroke-miterlimit="8" stroke-opacity="1" fill="none" fill-rule="evenodd"/><text fill="#FEE37D" fill-opacity="1" font-family="Avenir Black,Avenir Black_MSFontService,sans-serif" font-style="normal" font-variant="normal" font-weight="800" font-stretch="normal" font-size="165" text-anchor="start" direction="ltr" writing-mode="lr-tb" unicode-bidi="normal" text-decoration="none" transform="matrix(1 0 0 1 1151.25 1664)">Matey.AI</text></g></svg>